<?xml version="1.0" encoding="UTF-8" standalone="no"?><!DOCTYPE svg PUBLIC "-//W3C//DTD SVG 1.1//EN" "http://www.w3.org/Graphics/SVG/1.1/DTD/svg11.dtd"><svg width="100%" height="100%" viewBox="0 0 24 24" version="1.1" xmlns="http://www.w3.org/2000/svg" xmlns:xlink="http://www.w3.org/1999/xlink" xml:space="preserve" xmlns:serif="http://www.serif.com/" style="fill-rule:evenodd;clip-rule:evenodd;stroke-linejoin:round;stroke-miterlimit:1.41421;"><g transform="matrix(0.761616,0,0,1.53476,-3.12078,-7.98717)"><g transform="matrix(5.97269,0,0,5.97269,4.09757,14.5516)"><path d="M0.852,-0.596c-0.016,-0.016 -0.043,-0.026 -0.08,-0.031l0.005,-0.04l0.216,0l-0.005,0.041c-0.025,0.002 -0.043,0.01 -0.056,0.024l-0.291,0.602l-0.1,0l-0.06,-0.43l-0.204,0.43l-0.1,0l-0.076,-0.596c-0.012,-0.015 -0.03,-0.025 -0.055,-0.03l0.006,-0.041l0.273,0l-0.006,0.04c-0.033,0.005 -0.055,0.012 -0.066,0.022l0.049,0.42l0.216,-0.482l0.086,0l0.06,0.482l0.188,-0.411Z" style="fill-rule:nonzero;"/></g><g transform="matrix(5.97269,0,0,5.97269,9.65218,14.5516)"><path d="M0.553,-0.503c-0.017,0.005 -0.031,0.007 -0.042,0.007c-0.011,0 -0.019,-0.001 -0.026,-0.003c-0.001,-0.045 -0.009,-0.081 -0.022,-0.107l-0.169,0l-0.038,0.234l0.091,-0.004c0.012,-0.001 0.024,-0.007 0.036,-0.02c0.012,-0.012 0.022,-0.028 0.03,-0.047l0.042,0l-0.033,0.207l-0.042,0c-0.005,-0.027 -0.011,-0.045 -0.018,-0.056c-0.007,-0.012 -0.016,-0.017 -0.027,-0.018l-0.088,-0.004l-0.04,0.252l0.187,0c0.024,-0.03 0.045,-0.071 0.063,-0.122c0.016,-0.005 0.029,-0.007 0.04,-0.007c0.011,0 0.021,0.001 0.028,0.003l-0.04,0.188l-0.5,0l0.005,-0.041c0.027,-0.004 0.051,-0.014 0.072,-0.03l0.083,-0.525c-0.012,-0.015 -0.034,-0.025 -0.066,-0.03l0.006,-0.041l0.49,0l-0.022,0.164Z" style="fill-rule:nonzero;"/></g><g transform="matrix(5.97269,0,0,5.97269,13.0088,14.5516)"><path d="M0.38,-0.667c0.157,0 0.235,0.047 0.235,0.141c0,0.088 -0.047,0.144 -0.14,0.167c0.08,0.025 0.12,0.071 0.12,0.137c0,0.066 -0.028,0.119 -0.085,0.16c-0.056,0.041 -0.132,0.062 -0.227,0.062l-0.283,0l0.005,-0.041c0.027,-0.004 0.051,-0.014 0.072,-0.03l0.083,-0.525c-0.012,-0.015 -0.034,-0.025 -0.066,-0.03l0.006,-0.041l0.28,0Zm-0.15,0.551c-0.001,0.011 -0.002,0.019 -0.002,0.026c0,0.017 0.017,0.027 0.05,0.028c0.105,-0.003 0.157,-0.058 0.157,-0.165c0,-0.062 -0.046,-0.093 -0.139,-0.093l-0.033,0l-0.033,0.204Zm0.236,-0.405c0,-0.054 -0.037,-0.082 -0.111,-0.085c-0.017,0.001 -0.029,0.003 -0.036,0.006c-0.007,0.004 -0.012,0.012 -0.015,0.023l-0.031,0.194l0.026,0c0.111,0 0.167,-0.046 0.167,-0.138Z" style="fill-rule:nonzero;"/></g><g transform="matrix(5.97269,0,0,5.97269,16.7418,14.5516)"><path d="M0.302,-0.667c0.169,0 0.276,0.044 0.32,0.133c0.017,0.033 0.026,0.076 0.026,0.127c0,0.051 -0.007,0.101 -0.022,0.148c-0.014,0.047 -0.037,0.09 -0.069,0.13c-0.031,0.04 -0.076,0.072 -0.133,0.095c-0.058,0.023 -0.127,0.034 -0.206,0.034l-0.225,0l0.005,-0.041c0.026,-0.004 0.05,-0.014 0.071,-0.029l0.084,-0.526c-0.012,-0.015 -0.034,-0.025 -0.066,-0.03l0.006,-0.041l0.209,0Zm-0.08,0.568c0,0.024 0.012,0.036 0.036,0.036c0.038,0 0.072,-0.009 0.101,-0.026c0.029,-0.017 0.051,-0.039 0.068,-0.064c0.016,-0.026 0.029,-0.056 0.039,-0.091c0.017,-0.057 0.026,-0.119 0.026,-0.185c0,-0.117 -0.054,-0.176 -0.163,-0.176l-0.027,0l-0.078,0.488c-0.001,0.009 -0.002,0.015 -0.002,0.018Z" style="fill-rule:nonzero;"/></g><g transform="matrix(5.97269,0,0,5.97269,20.7972,14.5516)"><path d="M0.553,-0.503c-0.017,0.005 -0.031,0.007 -0.042,0.007c-0.011,0 -0.019,-0.001 -0.026,-0.003c-0.001,-0.045 -0.009,-0.081 -0.022,-0.107l-0.169,0l-0.038,0.234l0.091,-0.004c0.012,-0.001 0.024,-0.007 0.036,-0.02c0.012,-0.012 0.022,-0.028 0.03,-0.047l0.042,0l-0.033,0.207l-0.042,0c-0.005,-0.027 -0.011,-0.045 -0.018,-0.056c-0.007,-0.012 -0.016,-0.017 -0.027,-0.018l-0.088,-0.004l-0.04,0.252l0.187,0c0.024,-0.03 0.045,-0.071 0.063,-0.122c0.016,-0.005 0.029,-0.007 0.04,-0.007c0.011,0 0.021,0.001 0.028,0.003l-0.04,0.188l-0.5,0l0.005,-0.041c0.027,-0.004 0.051,-0.014 0.072,-0.03l0.083,-0.525c-0.012,-0.015 -0.034,-0.025 -0.066,-0.03l0.006,-0.041l0.49,0l-0.022,0.164Z" style="fill-rule:nonzero;"/></g><g transform="matrix(5.97269,0,0,5.97269,24.0822,14.5516)"><path d="M0.309,-0.185l0.201,-0.412c-0.017,-0.015 -0.043,-0.025 -0.08,-0.03l0.005,-0.04l0.226,0l-0.006,0.041c-0.031,0.003 -0.053,0.011 -0.065,0.024l-0.305,0.602l-0.101,0l-0.074,-0.585c-0.003,-0.019 -0.022,-0.033 -0.058,-0.041l0.005,-0.041l0.276,0l-0.006,0.04c-0.033,0.005 -0.055,0.012 -0.067,0.022l0.049,0.42Z" style="fill-rule:nonzero;"/></g><g transform="matrix(5.97269,0,0,5.97269,27.5464,14.5516)"><path d="M0.253,-0.469c-0.015,0.043 -0.026,0.086 -0.034,0.13c-0.007,0.043 -0.011,0.081 -0.011,0.112c0,0.031 0.001,0.055 0.004,0.073c0.002,0.017 0.006,0.035 0.012,0.052c0.013,0.035 0.042,0.052 0.085,0.052c0.031,0 0.06,-0.014 0.086,-0.043c0.025,-0.029 0.045,-0.064 0.06,-0.107c0.03,-0.088 0.045,-0.171 0.045,-0.25c0,-0.085 -0.016,-0.138 -0.048,-0.157c-0.014,-0.009 -0.032,-0.013 -0.053,-0.013c-0.031,0 -0.06,0.014 -0.086,0.043c-0.025,0.029 -0.045,0.065 -0.06,0.107Zm-0.205,0.213c0,-0.132 0.031,-0.235 0.093,-0.31c0.061,-0.074 0.151,-0.111 0.268,-0.111c0.084,0 0.147,0.022 0.189,0.067c0.042,0.045 0.063,0.111 0.063,0.198c0,0.132 -0.031,0.235 -0.092,0.311c-0.061,0.074 -0.15,0.112 -0.269,0.112c-0.083,0 -0.146,-0.023 -0.189,-0.069c-0.042,-0.045 -0.063,-0.111 -0.063,-0.198Z" style="fill-rule:nonzero;"/></g><g transform="matrix(5.97269,0,0,5.97269,31.5779,14.5516)"><path d="M0.253,-0.469c-0.015,0.043 -0.026,0.086 -0.034,0.13c-0.007,0.043 -0.011,0.081 -0.011,0.112c0,0.031 0.001,0.055 0.004,0.073c0.002,0.017 0.006,0.035 0.012,0.052c0.013,0.035 0.042,0.052 0.085,0.052c0.031,0 0.06,-0.014 0.086,-0.043c0.025,-0.029 0.045,-0.064 0.06,-0.107c0.03,-0.088 0.045,-0.171 0.045,-0.25c0,-0.085 -0.016,-0.138 -0.048,-0.157c-0.014,-0.009 -0.032,-0.013 -0.053,-0.013c-0.031,0 -0.06,0.014 -0.086,0.043c-0.025,0.029 -0.045,0.065 -0.06,0.107Zm-0.205,0.213c0,-0.132 0.031,-0.235 0.093,-0.31c0.061,-0.074 0.151,-0.111 0.268,-0.111c0.084,0 0.147,0.022 0.189,0.067c0.042,0.045 0.063,0.111 0.063,0.198c0,0.132 -0.031,0.235 -0.092,0.311c-0.061,0.074 -0.15,0.112 -0.269,0.112c-0.083,0 -0.146,-0.023 -0.189,-0.069c-0.042,-0.045 -0.063,-0.111 -0.063,-0.198Z" style="fill-rule:nonzero;"/></g><rect x="4.098" y="12.819" width="31.512" height="0.454"/></g></svg>