<?xml version="1.0" encoding="UTF-8" standalone="no"?>
<svg
   xmlns:dc="http://purl.org/dc/elements/1.1/"
   xmlns:cc="http://creativecommons.org/ns#"
   xmlns:rdf="http://www.w3.org/1999/02/22-rdf-syntax-ns#"
   xmlns:svg="http://www.w3.org/2000/svg"
   xmlns="http://www.w3.org/2000/svg"
   xmlns:sodipodi="http://sodipodi.sourceforge.net/DTD/sodipodi-0.dtd"
   xmlns:inkscape="http://www.inkscape.org/namespaces/inkscape"
   width="256.0px"
   height="256.0px"
   viewBox="0 0 256.0 256.0"
   version="1.1"
   id="SVGRoot"
   sodipodi:docname="logo-comete-webdevoo-2023-rounded-256x256.svg"
   inkscape:version="1.0.1 (3bc2e813f5, 2020-09-07)">
  <defs
     id="defs2316" />
  <sodipodi:namedview
     id="base"
     pagecolor="#ffffff"
     bordercolor="#666666"
     borderopacity="1.0"
     inkscape:pageopacity="0.0"
     inkscape:pageshadow="2"
     inkscape:zoom="2.8"
     inkscape:cx="108.15824"
     inkscape:cy="117.42324"
     inkscape:document-units="px"
     inkscape:current-layer="g2314"
     inkscape:document-rotation="0"
     showgrid="true"
     inkscape:window-width="1816"
     inkscape:window-height="1020"
     inkscape:window-x="32"
     inkscape:window-y="0"
     inkscape:window-maximized="0">
    <inkscape:grid
       type="xygrid"
       id="grid2886" />
  </sodipodi:namedview>
  <metadata
     id="metadata2319">
    <rdf:RDF>
      <cc:Work
         rdf:about="">
        <dc:format>image/svg+xml</dc:format>
        <dc:type
           rdf:resource="http://purl.org/dc/dcmitype/StillImage" />
        <dc:title />
      </cc:Work>
    </rdf:RDF>
  </metadata>
  <g
     inkscape:label="Calque 1"
     inkscape:groupmode="layer"
     id="layer1">
    <g
       id="g2314"
       transform="matrix(1.5,0,0,1.5,-420.99606,-34.205581)">
      <rect
         style="mix-blend-mode:normal;fill:#ece4f0;fill-opacity:1;stroke-width:17.0667;stroke-linejoin:round;paint-order:stroke fill markers"
         id="rect1531"
         width="256"
         height="256"
         x="0"
         y="0"
         ry="128"
         transform="matrix(0.66666667,0,0,0.66666667,280.66404,22.803721)"
         rx="128" />
      <g
         id="g2373"
         style="fill:#44fdd2;fill-opacity:1"
         transform="matrix(2.0074593,0,0,2.0824572,261.72385,-25.405659)">
        <path
           id="path1410-6-1-1-9"
           style="fill:#75507b;fill-opacity:1;stroke:none;stroke-width:0.5;stroke-linejoin:round;stroke-miterlimit:4;stroke-dasharray:none"
           d="M 82.236888,70.942388 C 85.958274,79.667654 81.901829,89.75766 73.176563,93.479046 64.451297,97.200433 54.361292,93.143987 50.639905,84.418721 46.918519,75.693455 51.124842,49.4229 49.176563,37.207983 c 7.467266,9.861031 29.338938,25.00914 33.060325,33.734405 z"
           sodipodi:nodetypes="ssscs" />
        <path
           id="path1410-1-2-0"
           style="fill:#5c3566;fill-opacity:1;stroke:none;stroke-width:0.5;stroke-linejoin:round;stroke-miterlimit:4;stroke-dasharray:none"
           d="m 83.824127,77.394546 c -10e-7,9.485725 -7.6897,17.175425 -17.175425,17.175425 -9.485725,0 -17.175424,-7.6897 -17.175425,-17.175425 10e-7,-9.485725 14.175425,-32 17.175425,-44 3,12 17.175424,34.514275 17.175425,44 z"
           sodipodi:nodetypes="ssscs" />
        <path
           id="path1410-6-7-9-4-7-2"
           style="fill:#75507b;fill-opacity:1;stroke:none;stroke-width:0.5;stroke-linejoin:round;stroke-miterlimit:4;stroke-dasharray:none"
           d="m 72.532906,63.167067 c 9.690362,22.54438 12.040502,11.45646 8.583199,20.289697 -3.45731,8.833229 -11.997494,13.419951 -20.83073,9.962644 C 51.452142,89.962103 35.653129,68.55588 25.571993,61.388545 c 12.267983,1.580054 0.19517,1.913481 46.960913,1.778522 z"
           sodipodi:nodetypes="csscc" />
        <path
           id="path1410-6-7-5-3-8"
           style="fill:#5c3566;fill-opacity:1;stroke:none;stroke-width:0.5;stroke-linejoin:round;stroke-miterlimit:4;stroke-dasharray:none"
           d="m 77.607834,65.297267 c 6.440417,6.964195 6.015809,17.830781 -0.948385,24.271201 -6.964198,6.44041 -17.830781,6.015808 -24.271198,-0.94839 -6.440416,-6.964195 -11.31942,-33.118172 -17.264396,-43.965165 5.175017,3.38662 14.185908,6.80616 22.708096,10.249569 8.522188,3.443409 16.555675,6.910688 19.775883,10.392785 z"
           sodipodi:nodetypes="ssscss" />
        <path
           id="path1410-6-7-9-9-1-9-1"
           style="fill:#5c3566;fill-opacity:1;stroke:none;stroke-width:0.5;stroke-linejoin:round;stroke-miterlimit:4;stroke-dasharray:none"
           d="m 63.899755,60.220041 c 9.485312,-0.08851 19.737142,7.443348 19.825659,16.928662 0.08851,9.485309 -7.37211,19.086484 -19.505125,17.420692 C 54.829301,93.280067 32.089409,80.693188 20.061938,77.805293 32.033421,74.693449 54.414442,60.308554 63.899753,60.220038 Z"
           sodipodi:nodetypes="ssscss" />
      </g>
      <path
         id="path2424-4"
         style="fill:#ffffff;fill-opacity:1;stroke-width:0.72382;stroke-linejoin:round"
         d="m 403.99737,136.13705 c -0.91157,0.99158 -1.37254,2.94087 -3.1336,2.56488 -3.67981,-1.58997 -7.35961,-3.17994 -11.03944,-4.76987 2.00212,3.48853 4.00422,6.97706 6.00632,10.46563 -0.64944,1.19875 -0.73154,3.22458 -2.46388,3.2212 -12.62417,-2.87785 -25.24836,-5.75571 -37.87255,-8.63355 14.40049,6.96505 28.81432,14.1919 42.16893,23.38528 1.36035,0.94148 2.68783,1.93429 4.00369,2.94194 -1.18458,-4.59186 -2.36913,-9.18372 -3.5537,-13.77558 1.03221,-0.82827 1.65999,-2.93118 3.39459,-2.27255 3.61203,1.56013 7.22408,3.12029 10.83611,4.68043 -2.00104,-3.48754 -4.00212,-6.97509 -6.00318,-10.46263 0.70204,-1.1338 0.67772,-3.40999 2.47307,-3.24396 4.5799,0.65581 9.25583,1.35973 13.77568,1.9855 -10.37263,-10.9219 -18.76665,-23.41718 -26.92252,-35.87966 -1.50308,-2.32288 -2.98791,-4.6556 -4.44822,-7.001542 4.25956,12.264832 8.51914,24.529652 12.7787,36.794482 z" />
    </g>
  </g>
</svg>
