<?xml version="1.0" encoding="UTF-8" standalone="no"?>
<svg
   xmlns:dc="http://purl.org/dc/elements/1.1/"
   xmlns:cc="http://creativecommons.org/ns#"
   xmlns:rdf="http://www.w3.org/1999/02/22-rdf-syntax-ns#"
   xmlns:svg="http://www.w3.org/2000/svg"
   xmlns="http://www.w3.org/2000/svg"
   xmlns:sodipodi="http://sodipodi.sourceforge.net/DTD/sodipodi-0.dtd"
   xmlns:inkscape="http://www.inkscape.org/namespaces/inkscape"
   width="256.0px"
   height="256.0px"
   viewBox="0 0 256.0 256.0"
   version="1.1"
   id="SVGRoot"
   sodipodi:docname="logo_comete_webdevoo_white.svg"
   inkscape:version="1.0.1 (3bc2e813f5, 2020-09-07)"
   inkscape:export-filename="C:\Users\valer\OneDrive\Bureau\logo_comete_255x256.png"
   inkscape:export-xdpi="96.149574"
   inkscape:export-ydpi="96.149574">
  <defs
     id="defs1736">
    <rect
       x="84.347738"
       y="126.77414"
       width="138.89598"
       height="116.16754"
       id="rect2364" />
    <rect
       x="87.378195"
       y="131.82491"
       width="96.974644"
       height="97.984797"
       id="rect2351" />
  </defs>
  <sodipodi:namedview
     id="base"
     pagecolor="#ffffff"
     bordercolor="#666666"
     borderopacity="1.0"
     inkscape:pageopacity="0.0"
     inkscape:pageshadow="2"
     inkscape:zoom="1"
     inkscape:cx="301.481"
     inkscape:cy="303.27671"
     inkscape:document-units="px"
     inkscape:current-layer="g2050"
     inkscape:document-rotation="0"
     showgrid="true"
     inkscape:window-width="1920"
     inkscape:window-height="1001"
     inkscape:window-x="-9"
     inkscape:window-y="-9"
     inkscape:window-maximized="1"
     showguides="true"
     inkscape:guide-bbox="true"
     inkscape:snap-bbox="true">
    <inkscape:grid
       type="xygrid"
       id="grid2306" />
  </sodipodi:namedview>
  <metadata
     id="metadata1739">
    <rdf:RDF>
      <cc:Work
         rdf:about="">
        <dc:format>image/svg+xml</dc:format>
        <dc:type
           rdf:resource="http://purl.org/dc/dcmitype/StillImage" />
        <dc:title />
      </cc:Work>
    </rdf:RDF>
  </metadata>
  <g
     inkscape:label="Calque 1"
     inkscape:groupmode="layer"
     id="layer1">
    <g
       id="g1645-4-6"
       transform="matrix(3.5384025,0,0,3.2,-70.987213,-64)" />
    <g
       id="g2474">
      <g
         id="g2050">
        <g
           id="g870">
          <path
             id="path1410-1-2-0"
             style="fill:#e3e3e3;fill-opacity:1;stroke:none;stroke-width:2.04461;stroke-linejoin:round;stroke-miterlimit:4;stroke-dasharray:none"
             d="m 255.99999,183.25622 c 0,39.50723 -30.87352,71.53418 -68.95793,71.53418 -38.08441,0 -68.95793,-32.02695 -68.95793,-71.53418 0,-39.50723 56.91318,-133.277251 68.95793,-183.2562211620468 C 199.08682,49.978969 255.99999,143.74899 255.99999,183.25622 Z"
             sodipodi:nodetypes="ssscs" />
          <path
             id="path1410-6-1-1-9"
             style="fill:#c8c8c8;fill-opacity:1;stroke:none;stroke-width:2.04461;stroke-linejoin:round;stroke-miterlimit:4;stroke-dasharray:none"
             d="m 249.62736,156.38354 c 14.94106,36.33998 -1.34524,78.36399 -36.37647,93.86325 -35.03123,15.49925 -75.54178,-1.3955 -90.48284,-37.73548 -14.94107,-36.33998 1.94698,-145.754592 -5.8752,-196.628673 29.98046,41.070348 117.79344,104.160923 132.73451,140.500903 z"
             sodipodi:nodetypes="ssscs" />
          <path
             id="path1410-6-7-5-3-8"
             style="fill:#e3e3e3;fill-opacity:1;stroke:none;stroke-width:2.04461;stroke-linejoin:round;stroke-miterlimit:4;stroke-dasharray:none"
             d="m 231.04208,132.87209 c 25.85774,29.00528 24.15299,74.26368 -3.80769,101.08747 -27.96068,26.82376 -71.58913,25.05533 -97.44688,-3.94996 C 103.92977,201.00433 84.340964,92.075256 60.47237,46.898461 102.02691,75.108425 205.18433,103.86682 231.04208,132.87209 Z"
             sodipodi:nodetypes="ssscs" />
          <path
             id="path1410-6-7-9-4-7-2"
             style="fill:#c8c8c8;fill-opacity:1;stroke:none;stroke-width:2.04461;stroke-linejoin:round;stroke-miterlimit:4;stroke-dasharray:none"
             d="m 211.76065,116.77125 c 35.46471,14.39939 52.96193,55.8963 39.08114,92.68597 -13.88082,36.78964 -53.88325,54.94057 -89.34797,40.54118 C 126.02911,235.59902 62.597362,146.44394 22.122423,116.5926 c 49.254952,6.58079 154.173507,-14.22073 189.638227,0.17864 z"
             sodipodi:nodetypes="ssscs" />
          <path
             id="path1410-6-7-9-9-1-9-1"
             style="fill:#e3e3e3;fill-opacity:1;stroke:none;stroke-width:2.04461;stroke-linejoin:round;stroke-miterlimit:4;stroke-dasharray:none"
             d="m 176.00526,111.72588 c 38.08276,-0.36863 69.24302,31.35805 69.59841,70.86357 0.35536,39.5055 -30.22872,71.8299 -68.31149,72.19855 C 139.20943,255.15665 48.289317,196.99478 1.022053e-6,184.96695 48.06453,172.00639 137.9225,112.09453 176.00526,111.72587 Z"
             sodipodi:nodetypes="ssscs" />
          <path
             id="path2424"
             style="fill:#484848;fill-opacity:1;stroke-width:0.851509;stroke-linejoin:round"
             d="m 179.87997,229.28431 7.34055,-18.25663 16.47071,18.30131 c -2.84985,-23.98169 21.12683,-82.17718 21.12683,-82.17718 l -37.8958,54.74012 -8.53363,-18.28642 z m 0,0 -8.53362,-18.28641 -15.27762,18.24174 c 1.28415,-23.97395 -26.49566,-82.26653 -26.49566,-82.26653 l 41.47502,54.88903 7.34054,-18.25663 z"
             sodipodi:nodetypes="cccccccccccccc" />
        </g>
      </g>
    </g>
  </g>
</svg>
