<?xml version="1.0" encoding="UTF-8" standalone="no"?>
<svg
   xmlns:dc="http://purl.org/dc/elements/1.1/"
   xmlns:cc="http://creativecommons.org/ns#"
   xmlns:rdf="http://www.w3.org/1999/02/22-rdf-syntax-ns#"
   xmlns:svg="http://www.w3.org/2000/svg"
   xmlns="http://www.w3.org/2000/svg"
   xmlns:sodipodi="http://sodipodi.sourceforge.net/DTD/sodipodi-0.dtd"
   xmlns:inkscape="http://www.inkscape.org/namespaces/inkscape"
   width="256.0px"
   height="256.0px"
   viewBox="0 0 256.0 256.0"
   version="1.1"
   id="SVGRoot"
   sodipodi:docname="logo-comete-webdevoo-2023-no-background-256x256.svg"
   inkscape:version="1.0.1 (3bc2e813f5, 2020-09-07)"
   inkscape:export-filename="C:\Users\valer\OneDrive\Bureau\Bureau de travail\new_logo_webdevoo_2021\logo-comete-webdevoo-2023-no-background-256x256.png"
   inkscape:export-xdpi="109.71429"
   inkscape:export-ydpi="109.71429">
  <defs
     id="defs855" />
  <sodipodi:namedview
     id="base"
     pagecolor="#ffffff"
     bordercolor="#666666"
     borderopacity="1.0"
     inkscape:pageopacity="0.0"
     inkscape:pageshadow="2"
     inkscape:zoom="1.979899"
     inkscape:cx="161.07874"
     inkscape:cy="135.30043"
     inkscape:document-units="px"
     inkscape:current-layer="g1459"
     inkscape:document-rotation="0"
     showgrid="true"
     inkscape:window-width="1816"
     inkscape:window-height="1020"
     inkscape:window-x="86"
     inkscape:window-y="0"
     inkscape:window-maximized="0"
     showguides="true">
    <inkscape:grid
       type="xygrid"
       id="grid1425" />
  </sodipodi:namedview>
  <metadata
     id="metadata858">
    <rdf:RDF>
      <cc:Work
         rdf:about="">
        <dc:format>image/svg+xml</dc:format>
        <dc:type
           rdf:resource="http://purl.org/dc/dcmitype/StillImage" />
        <dc:title />
      </cc:Work>
    </rdf:RDF>
  </metadata>
  <g
     inkscape:label="Calque 1"
     inkscape:groupmode="layer"
     id="layer1">
    <g
       id="g1459"
       transform="matrix(1.75,0,0,1.75,-512.4954,-61.239844)">
      <g
         id="g1022">
        <g
           id="g947"
           transform="matrix(1.0429394,0,0,1.0457016,-17.270575,-6.6623757)">
          <path
             id="path1410-6-1-1-9"
             style="fill:#e0c8e8;fill-opacity:1;stroke:none;stroke-width:1.02231;stroke-linejoin:round;stroke-miterlimit:4;stroke-dasharray:none"
             d="m 362.15563,57.058832 c 1.12749,15.204736 0.0603,30.457567 -0.40694,45.668228 -0.37864,12.31916 -0.97288,24.84122 0.35892,37.01782 0.55999,5.4411 1.99229,10.86703 4.99572,15.42802 6.64926,10.93032 19.58923,17.20514 31.93688,15.549 11.59652,-1.33726 22.17904,-9.48564 26.68131,-20.66804 4.6419,-10.96812 3.38634,-24.62296 -3.92256,-34.04329 -6.80279,-9.10926 -15.08158,-16.686916 -23.24538,-24.395016 -11.59637,-10.916379 -23.75987,-21.249219 -34.42335,-33.179958 -0.63789,-0.60324 -1.70205,-2.216434 -2.06337,-2.251563 0.0296,0.2916 0.0592,0.583199 0.0888,0.874799 z" />
          <path
             id="path1410-1-2-0"
             style="fill:#5c3566;fill-opacity:1;stroke:none;stroke-width:1.02231;stroke-linejoin:round;stroke-miterlimit:4;stroke-dasharray:none"
             d="m 395.20813,49.412309 c -4.66117,14.317772 -11.34149,27.793846 -17.47176,41.468077 -5.18001,11.604154 -10.70635,23.217004 -14.10848,35.577624 -1.49578,5.18829 -1.93814,10.72191 -0.8303,16.04204 2.27441,12.57878 11.873,23.30889 23.79326,26.60574 11.21599,3.33183 23.98711,-0.0422 32.24498,-8.60787 8.14235,-8.16127 12.0284,-20.94781 8.98424,-32.37951 -2.95555,-11.84654 -8.14378,-22.91389 -13.04757,-33.99017 -6.39334,-14.369642 -13.47125,-28.468962 -18.52621,-43.432185 -0.37577,-0.699975 -0.694,-3.449709 -1.02545,-1.326313 z" />
          <path
             id="path1410-6-7-9-4-7-2"
             style="fill:#e0c8e8;fill-opacity:1;stroke:none;stroke-width:1.02231;stroke-linejoin:round;stroke-miterlimit:4;stroke-dasharray:none"
             d="m 317.67786,104.6503 c 11.40327,9.9555 21.2688,21.60388 31.54596,32.75805 8.61832,9.28925 17.05744,18.91479 27.10252,26.59182 8.09639,6.40224 19.46793,8.29019 28.93414,4.21454 8.98678,-3.728 15.48314,-12.1527 18.71534,-21.43043 0.74646,-2.24998 1.99446,-4.36944 2.46163,-6.68747 -2.59286,-2.32319 -5.06721,-4.84067 -7.01826,-7.79294 -5.27247,-7.73221 -9.15608,-16.36061 -12.82108,-25.00169 -22.567,-0.0265 -45.13989,0.28415 -67.70226,-0.29964 -5.86393,-0.0994 -11.70208,-0.78391 -17.4359,-2.06021 -1.43806,-0.28225 -2.88658,-0.49939 -4.33101,-0.7435 0.18297,0.15049 0.36595,0.30098 0.54892,0.45147 z" />
          <path
             id="path1410-6-7-5-3-8"
             style="fill:#5c3566;fill-opacity:1;stroke:none;stroke-width:1.02231;stroke-linejoin:round;stroke-miterlimit:4;stroke-dasharray:none"
             d="m 335.45877,71.67264 c 6.12541,14.246879 10.13243,29.32807 14.73316,44.14566 3.80503,12.12757 7.333,24.4668 13.08267,35.79491 4.53443,9.34118 13.73862,15.80008 23.6222,17.39596 7.9529,1.39069 16.74321,-0.46706 23.59771,-5.21446 9.3252,-6.24151 15.19871,-17.55549 15.06606,-29.0722 -4.6e-4,-11.19287 -5.52405,-22.44519 -14.81139,-28.34678 -9.5727,-6.34493 -20.10945,-10.66834 -30.5444,-15.175227 -14.28074,-6.13767 -28.89316,-11.568751 -42.61317,-19.013957 -0.65033,-0.174237 -2.61896,-1.831408 -2.40965,-1.110686 0.0923,0.198926 0.18454,0.397853 0.27681,0.59678 z" />
          <path
             id="path1410-6-7-9-9-1-9-1"
             style="fill:#5c3566;fill-opacity:1;stroke:none;stroke-width:1.02231;stroke-linejoin:round;stroke-miterlimit:4;stroke-dasharray:none"
             d="m 389.12302,101.1931 c -7.94835,0.71814 -15.38878,4.04939 -22.69762,7.15031 -18.45325,8.21917 -36.00449,18.50186 -54.69434,26.16164 -1.85286,0.73494 -3.71776,1.44012 -5.60786,2.06542 14.56693,4.588 28.38436,11.31702 42.3374,17.55548 12.02086,5.3585 23.94187,11.12387 36.52596,14.9463 8.69808,2.64492 18.29481,2.35821 26.36159,-2.17339 12.03728,-6.65194 18.83474,-21.62587 17.00817,-35.50963 -1.64703,-10.71835 -9.28708,-19.46491 -18.19049,-24.62114 -6.38929,-3.68924 -13.70078,-5.83429 -21.04281,-5.57499 z" />
        </g>
        <path
           id="path2424"
           style="fill:#ffffff;fill-opacity:1;stroke-width:0.620418;stroke-linejoin:round"
           d="m 403.80768,134.78393 c -0.78135,0.84993 -1.17646,2.52075 -2.68594,2.19847 -3.15413,-1.36283 -6.30824,-2.72566 -9.46238,-4.08846 1.7161,2.99017 3.43219,5.98034 5.14827,8.97054 -0.55666,1.0275 -0.62703,2.76393 -2.11189,2.76103 -10.82072,-2.46673 -21.64146,-4.93347 -32.46219,-7.40019 12.34328,5.97005 24.69799,12.16449 36.1448,20.04453 1.16601,0.80698 2.30385,1.65796 3.43173,2.52166 -1.01535,-3.93588 -2.03068,-7.87176 -3.04603,-11.80764 0.88475,-0.70994 1.42285,-2.51244 2.90965,-1.9479 3.09603,1.33726 6.19207,2.67454 9.2881,4.0118 -1.71518,-2.98932 -3.43039,-5.97865 -5.14559,-8.96797 0.60175,-0.97183 0.58091,-2.92285 2.11978,-2.78054 3.92563,0.56213 7.93357,1.16549 11.80772,1.70186 -8.89082,-9.36163 -16.0857,-20.07187 -23.07644,-30.75399 -1.28836,-1.99104 -2.56107,-3.99052 -3.81276,-6.00134 3.65105,10.51273 7.30212,21.02543 10.95317,31.53814 z" />
      </g>
    </g>
  </g>
</svg>
